<svg width="211" height="473" fill="none" xmlns="http://www.w3.org/2000/svg"><path fill="#666" d="M0 0h2.705v2.705H0zM29.754 0h2.705v2.705h-2.705zM59.508 0h2.705v2.705h-2.705zM89.262 0h2.705v2.705h-2.705zM119.016 0h2.705v2.705h-2.705zM148.771 0h2.705v2.705h-2.705zM178.525 0h2.705v2.705h-2.705zM208.279 0h2.705v2.705h-2.705zM0 42.705h2.705v2.705H0zM29.754 42.705h2.705v2.705h-2.705zM59.508 42.705h2.705v2.705h-2.705zM89.262 42.705h2.705v2.705h-2.705zM119.016 42.705h2.705v2.705h-2.705zM148.771 42.705h2.705v2.705h-2.705zM178.525 42.705h2.705v2.705h-2.705zM208.279 42.705h2.705v2.705h-2.705zM0 85.41h2.705v2.705H0zM29.754 85.41h2.705v2.705h-2.705zM59.508 85.41h2.705v2.705h-2.705zM89.262 85.41h2.705v2.705h-2.705zM119.016 85.41h2.705v2.705h-2.705zM148.771 85.41h2.705v2.705h-2.705zM178.525 85.41h2.705v2.705h-2.705zM208.279 85.41h2.705v2.705h-2.705zM0 128.115h2.705v2.705H0zM29.754 128.115h2.705v2.705h-2.705zM59.508 128.115h2.705v2.705h-2.705zM89.262 128.115h2.705v2.705h-2.705zM119.016 128.115h2.705v2.705h-2.705zM148.771 128.115h2.705v2.705h-2.705zM178.525 128.115h2.705v2.705h-2.705zM208.279 128.115h2.705v2.705h-2.705zM0 170.82h2.705v2.705H0zM29.754 170.82h2.705v2.705h-2.705zM59.508 170.82h2.705v2.705h-2.705zM89.262 170.82h2.705v2.705h-2.705zM119.016 170.82h2.705v2.705h-2.705zM148.771 170.82h2.705v2.705h-2.705zM178.525 170.82h2.705v2.705h-2.705zM208.279 170.82h2.705v2.705h-2.705zM0 213.525h2.705v2.705H0zM29.754 213.525h2.705v2.705h-2.705zM59.508 213.525h2.705v2.705h-2.705zM89.262 213.525h2.705v2.705h-2.705zM119.016 213.525h2.705v2.705h-2.705zM148.771 213.525h2.705v2.705h-2.705zM178.525 213.525h2.705v2.705h-2.705zM208.279 213.525h2.705v2.705h-2.705zM0 256.23h2.705v2.705H0zM29.754 256.23h2.705v2.705h-2.705zM59.508 256.23h2.705v2.705h-2.705zM89.262 256.23h2.705v2.705h-2.705zM119.016 256.23h2.705v2.705h-2.705zM148.771 256.23h2.705v2.705h-2.705zM178.525 256.23h2.705v2.705h-2.705zM208.279 256.23h2.705v2.705h-2.705zM0 298.934h2.705v2.705H0zM29.754 298.934h2.705v2.705h-2.705zM59.508 298.934h2.705v2.705h-2.705zM89.262 298.934h2.705v2.705h-2.705zM119.016 298.934h2.705v2.705h-2.705zM148.771 298.934h2.705v2.705h-2.705zM178.525 298.934h2.705v2.705h-2.705zM208.279 298.934h2.705v2.705h-2.705zM0 341.639h2.705v2.705H0zM29.754 341.639h2.705v2.705h-2.705zM59.508 341.639h2.705v2.705h-2.705zM89.262 341.639h2.705v2.705h-2.705zM119.016 341.639h2.705v2.705h-2.705zM148.771 341.639h2.705v2.705h-2.705zM178.525 341.639h2.705v2.705h-2.705zM208.279 341.639h2.705v2.705h-2.705zM0 384.344h2.705v2.705H0zM29.754 384.344h2.705v2.705h-2.705zM59.508 384.344h2.705v2.705h-2.705zM89.262 384.344h2.705v2.705h-2.705zM119.016 384.344h2.705v2.705h-2.705zM148.771 384.344h2.705v2.705h-2.705zM178.525 384.344h2.705v2.705h-2.705zM208.279 384.344h2.705v2.705h-2.705zM0 427.049h2.705v2.705H0zM29.754 427.049h2.705v2.705h-2.705zM59.508 427.049h2.705v2.705h-2.705zM89.262 427.049h2.705v2.705h-2.705zM119.016 427.049h2.705v2.705h-2.705zM148.771 427.049h2.705v2.705h-2.705zM178.525 427.049h2.705v2.705h-2.705zM208.279 427.049h2.705v2.705h-2.705zM0 469.754h2.705v2.705H0zM29.754 469.754h2.705v2.705h-2.705zM59.508 469.754h2.705v2.705h-2.705zM89.262 469.754h2.705v2.705h-2.705zM119.016 469.754h2.705v2.705h-2.705zM148.771 469.754h2.705v2.705h-2.705zM178.525 469.754h2.705v2.705h-2.705zM208.279 469.754h2.705v2.705h-2.705z"/></svg>