<svg width="60" height="40" viewBox="0 0 60 40" fill="none" xmlns="http://www.w3.org/2000/svg">
<g clip-path="url(#clip0_196_676)">
<path d="M46.6986 39.793C52.2064 39.1016 56.7767 34.8711 57.89 29.3985C58.1829 27.9571 58.2064 25.625 57.9486 24.2539C57.4798 21.7696 56.2962 19.4843 54.5618 17.6679C52.8157 15.8633 51.0697 14.8085 48.6322 14.1055L47.6947 13.8359L48.5618 12.0781C49.7806 9.62895 51.304 7.35555 53.1439 5.23435C53.8939 4.36715 54.14 3.80474 54.14 2.93755C54.14 1.54295 53.2962 0.476547 51.9486 0.183547C51.1868 0.00794922 50.6126 0.124946 48.6673 0.839946C40.2064 3.98054 34.558 10.4023 32.5306 19.1913C31.8978 21.9688 31.6048 26.2344 31.9096 28.2618C32.3666 31.2032 33.6088 33.7461 35.5892 35.8203C36.808 37.1094 37.7806 37.8243 39.3158 38.5743C41.6947 39.7344 44.0267 40.1211 46.6986 39.793Z" fill="#FEA02F"/>
<path d="M16.7337 39.8045C24.1517 38.7615 29.1907 32.0467 28.0657 24.6873C27.3041 19.6718 23.5541 15.406 18.7611 14.1288C18.2455 13.9882 17.8119 13.8358 17.8119 13.8006C17.8119 13.7654 18.1517 13.039 18.5619 12.1834C19.7103 9.81617 21.1283 7.68337 23.1205 5.30457C24.0227 4.21457 24.3157 3.49977 24.2221 2.64437C24.0463 1.15597 22.9329 0.159969 21.4447 0.14817C19.4993 0.136569 14.2377 2.64437 11.3079 4.97637C5.22586 9.81617 1.87426 17.281 1.87426 25.9529C1.87426 28.2498 2.12046 29.656 2.82346 31.4139C4.83906 36.4529 9.31566 39.6873 14.5307 39.8631C15.3391 39.8865 16.3235 39.8631 16.7337 39.8045Z" fill="#FEA02F"/>
</g>
<defs>
<clipPath id="clip0_196_676">
<rect width="60" height="40" fill="white" transform="translate(60 40) rotate(-180)"/>
</clipPath>
</defs>
</svg>
