<svg width="100" height="100" viewBox="0 0 100 100" fill="none" xmlns="http://www.w3.org/2000/svg">
<path fill-rule="evenodd" clip-rule="evenodd" d="M67.7741 2.28565C65.9012 2.78683 64.2846 3.9509 62.9887 5.73159C62.6184 6.24038 62.558 6.25679 61.817 6.04975C60.4629 5.67162 58.0199 5.94057 56.5468 6.62984C54.8535 7.42242 53.3013 8.97986 52.4827 10.7082C51.9011 11.9359 51.856 12.1789 51.856 14.0821C51.856 15.9842 51.9013 16.2286 52.4812 17.453C52.8251 18.179 53.5503 19.2421 54.0925 19.8155L55.0787 20.8581V23.7202V26.5822L54.5415 26.5833C52.97 26.5865 51.4034 27.5957 50.7554 29.0218C50.4755 29.6383 50.3987 30.3055 50.3954 32.1561C50.3917 34.2145 50.4458 34.6145 50.8306 35.3674C51.4993 36.6762 52.4304 37.3104 54.0956 37.5911L55.5046 37.8284L55.8472 38.7971C56.5986 40.9222 58.125 43.178 59.6656 44.4406C60.5338 45.1521 60.5475 45.1814 60.5475 46.3408C60.5475 48.3638 60.6729 48.2724 53.8911 51.1955C45.9391 54.6229 45.8772 54.6838 45.7403 59.2383L45.6598 61.9138L44.6563 61.1593C42.6678 59.6641 39.526 58.3635 37.2074 58.0754L36.0355 57.9299L35.9316 56.3674C35.8115 54.5647 35.4169 53.7317 34.3753 53.0826C33.7202 52.6744 33.4876 52.6566 28.8089 52.6566C24.235 52.6566 23.8828 52.682 23.243 53.0578C22.0592 53.7533 21.6799 54.5389 21.6799 56.2952C21.6799 57.7268 21.6518 57.8303 21.2404 57.9083C17.5535 58.6059 15.7468 59.2411 13.7158 60.554C12.178 61.5477 10.1091 63.5122 9.07802 64.957C8.2618 66.1009 6.80964 68.8845 6.58893 69.7279C6.48659 70.1191 6.35983 70.1373 3.72035 70.1373C1.04884 70.1373 0.943173 70.1529 0.479497 70.6168C0.215822 70.8804 0 71.3238 0 71.6021C0 72.2496 0.812312 73.067 1.45607 73.067C1.94279 73.067 1.95314 73.0963 1.95393 74.483C1.95451 75.5428 2.05061 76.0565 2.33596 76.5243C2.74378 77.1934 3.63402 77.7545 4.28715 77.7545C4.67114 77.7545 4.68754 77.8633 4.68754 80.4106C4.68754 83.3491 4.86821 84.0194 5.89166 84.8806C6.20592 85.145 6.81061 85.4552 7.23542 85.5695L8.00789 85.7775V87.3326V88.8875H4.97075C1.57912 88.8875 1.04552 89.0306 0.382816 90.1178C0.0541021 90.6568 0.0013672 91.1094 0.000781258 93.3996C0 95.8424 0.0359378 96.1096 0.445317 96.7172C0.690241 97.0805 1.10782 97.4877 1.37306 97.6221C1.75431 97.8151 10.4636 97.8668 42.9203 97.869C83.7268 97.8719 83.9877 97.8694 84.3758 97.4813C84.9575 96.8997 84.8967 95.8543 84.2518 95.3471L83.7371 94.9422H43.3334H2.92972V93.3797V91.8172H50.0005H97.0712V93.3797V94.9422H93.582C90.3475 94.9422 90.055 94.9717 89.578 95.3471C88.9331 95.8543 88.8723 96.8997 89.454 97.4813C89.8204 97.8477 90.103 97.8717 93.995 97.869C98.5582 97.8659 98.8177 97.8122 99.5556 96.7172C99.9652 96.1094 100.001 95.8426 100 93.3996C99.999 91.1814 99.9406 90.6469 99.6453 90.1605C99.3039 89.5984 99.3039 89.5459 99.6463 88.6449C100.094 87.4679 100.093 86.7966 99.6453 86.0589C99.3039 85.4968 99.3039 85.4443 99.6463 84.5433C100.103 83.3411 100.095 82.6143 99.6183 82.0083C99.2384 81.5255 99.2384 81.5149 99.6183 80.5151C100.107 79.2301 100.102 78.5217 99.6017 77.8856C99.2168 77.3961 99.2144 77.3549 99.5394 76.7362C99.7254 76.3821 99.8824 75.6369 99.8898 75.0739C99.9012 74.2096 99.8205 73.9701 99.3623 73.5113C98.8402 72.9883 98.7392 72.967 96.4814 72.9041L94.1415 72.8391V70.6004C94.1415 68.4839 94.1154 68.3355 93.662 67.8824C93.0511 67.2712 92.3023 67.2712 91.6913 67.8824C91.2376 68.3359 91.2118 68.483 91.2118 70.6168V72.8717H82.7938H74.3757L73.7116 73.5358C72.9487 74.2986 72.8577 75.019 73.3487 76.4104C73.6238 77.1903 73.6216 77.3266 73.322 77.9909C72.9568 78.8008 73.021 79.9061 73.4876 80.8415C73.7454 81.3585 73.7386 81.4571 73.4144 81.8786C72.9523 82.4796 72.953 83.6798 73.4161 84.6995C73.7663 85.4706 73.7663 85.504 73.4118 85.9417C73.0124 86.4351 72.931 87.5789 73.238 88.3865L73.4284 88.8875H68.546H63.6633L63.7166 73.6041L63.7701 58.3208L64.1961 57.5395C64.4305 57.1098 66.7157 54.6815 69.2743 52.1432C73.4884 47.9628 74.0115 47.508 74.829 47.3126C75.3255 47.1941 75.8628 47.0468 76.0232 46.9853C76.2421 46.9013 76.3468 47.0746 76.4441 47.6834C76.5154 48.1289 76.7394 48.8148 76.9419 49.2078C77.7 50.6781 78.3627 51.0748 84.4825 53.7207C88.4749 55.4471 90.4725 56.412 90.7724 56.7594C91.1812 57.2329 91.2118 57.4518 91.2118 59.903C91.2118 62.4399 91.2296 62.5556 91.6913 63.0171C92.3023 63.6282 93.0511 63.6282 93.662 63.0171C94.1251 62.5542 94.1415 62.4452 94.1415 59.819C94.1415 56.8748 93.9503 55.9801 93.0757 54.8334C92.4206 53.9746 91.6526 53.5824 85.5477 50.9894C82.701 49.7802 80.158 48.5881 79.8967 48.3398C79.524 47.9861 79.4033 47.6371 79.3371 46.721L79.2525 45.5535L80.8082 44.0269C82.4479 42.4179 83.7281 40.479 84.2742 38.7784L84.5912 37.7911L85.8866 37.5692C87.2981 37.3274 87.8477 37.0036 88.7591 35.8776L89.3563 35.1397V32.1627C89.3563 29.2295 89.3483 29.174 88.8165 28.4066C88.1643 27.4656 87.0747 26.8187 85.8614 26.6523L84.9618 26.5291V23.7062V20.8835L85.8489 19.8753C86.3368 19.321 87.0178 18.2977 87.3626 17.6018C87.9583 16.3987 87.9891 16.2256 87.9891 14.0862C87.9891 11.9203 87.9645 11.7867 87.3303 10.523C86.0077 7.88766 83.3153 6.07925 80.4846 5.92495C79.6705 5.88061 78.6092 5.93803 78.1257 6.05268C77.3148 6.24487 77.2242 6.22729 76.9545 5.82573C74.8884 2.7505 71.2624 1.35244 67.7741 2.28565ZM71.6046 5.19076C72.9558 5.59213 74.0911 6.62827 74.7945 8.10192C75.6007 9.79119 76.0076 9.95604 77.7006 9.27888C80.5344 8.14508 83.4809 9.22146 84.6979 11.8346C85.0112 12.5074 85.1539 13.1711 85.1551 13.9617C85.158 15.7563 84.8205 16.5741 83.533 17.8907C82.9027 18.5352 82.3072 19.2661 82.2096 19.5147C82.1119 19.7634 82.032 21.0599 82.032 22.3956V24.8243H70.0202H58.0084V22.1737V19.5231L56.763 18.3163C55.2529 16.8528 54.8615 16.1272 54.7355 14.5571C54.598 12.8453 55.0595 11.5807 56.2599 10.3805C57.892 8.74822 60.2912 8.36442 62.5324 9.37693C63.8289 9.96268 64.2297 9.75233 65.1715 7.99235C66.559 5.39975 68.8899 4.3847 71.6046 5.19076ZM34.8357 15.2387C34.3376 15.4559 33.7894 16.1891 33.7894 16.6383C33.7894 16.8147 33.9628 17.1795 34.1747 17.4489C34.5369 17.9094 34.6923 17.9438 36.7658 18.0233C39.3125 18.1208 39.9428 18.378 40.6301 19.6011C41.3338 20.853 40.9367 22.4015 39.7045 23.2103C39.2453 23.5116 38.5056 23.5671 33.799 23.6525L28.4182 23.7501L27.3921 24.3187C25.6151 25.3033 24.8049 26.7396 24.8049 28.9054C24.8049 30.1414 24.8516 30.3015 25.3196 30.6695C25.9817 31.1904 26.4172 31.1809 27.0561 30.6312C27.4678 30.2771 27.6003 29.9418 27.7159 28.9615C27.8286 28.0054 27.9768 27.6183 28.3876 27.2072L28.9145 26.6798L34.3306 26.5802C40.6123 26.4646 40.8014 26.4203 42.3817 24.6913C44.0836 22.8288 44.387 20.4792 43.2198 18.1969C42.593 16.9715 41.2482 15.8348 39.9719 15.4516C38.9471 15.1438 35.3914 14.9965 34.8357 15.2387ZM14.1603 25.8122C13.056 26.1355 11.4394 27.266 10.7226 28.2162C8.12996 31.6533 9.39618 36.619 13.3222 38.4106C14.4685 38.9337 14.7505 38.9764 17.5238 39.0475L20.4965 39.1237L21.1082 38.5122C21.6012 38.019 21.6953 37.7975 21.5938 37.3684C21.3432 36.309 20.9061 36.1528 18.1914 36.1514C15.4179 36.1502 14.5392 35.9735 13.6695 35.2416C11.6112 33.5098 11.9579 30.0867 14.3068 28.9496C15.0626 28.5838 15.5058 28.5353 18.1019 28.5353C20.7799 28.5353 21.0871 28.4994 21.5559 28.1304C22.2008 27.6232 22.2615 26.5779 21.6799 25.9962C21.3188 25.6351 21.042 25.607 18.0178 25.6232C16.2183 25.6329 14.4826 25.7179 14.1603 25.8122ZM82.032 31.8146C82.032 34.8307 81.9551 36.1705 81.733 37.0233C80.7998 40.6063 77.8613 43.5157 74.23 44.4523C72.2987 44.9503 66.5573 44.8005 64.9717 44.2109C62.0578 43.1269 59.8041 40.9016 58.6427 37.9612C58.1416 36.6926 58.1183 36.4664 58.0488 32.1975L57.9763 27.7541H70.0042H82.032V31.8146ZM62.5621 29.5133C61.9504 29.7597 61.7193 30.3123 61.7193 31.5281C61.7193 32.7799 62.0947 33.3574 63.0248 33.5371C63.5264 33.634 63.7436 33.5602 64.1479 33.1559C64.5762 32.7275 64.6491 32.4818 64.6491 31.465C64.6491 30.4623 64.5737 30.2 64.1696 29.7961C63.6682 29.2945 63.2762 29.2256 62.5621 29.5133ZM76.0484 29.5451C74.7386 30.1793 74.9714 33.2092 76.3531 33.5125C77.53 33.7711 78.1257 33.0516 78.1257 31.3713C78.1257 30.4682 78.0414 30.191 77.6463 29.7961C77.1353 29.2849 76.7201 29.2197 76.0484 29.5451ZM55.0787 32.173V34.8342L54.4439 34.7096C53.4716 34.5186 53.3208 34.158 53.3208 32.0248C53.3208 30.2779 53.3568 30.0947 53.755 29.816C53.9937 29.6488 54.3892 29.5119 54.6339 29.5119C55.0749 29.5119 55.0787 29.534 55.0787 32.173ZM86.0901 29.816C86.4915 30.0971 86.5243 30.2734 86.5243 32.1553C86.5243 34.1088 86.5047 34.2031 86.0375 34.5094C85.0942 35.1274 84.9618 34.8414 84.9618 32.1873C84.9618 29.3418 85.0746 29.1047 86.0901 29.816ZM68.2358 29.9314C67.5739 30.2588 67.3835 30.9545 67.3835 33.0465C67.3835 36.0784 67.8938 36.7385 70.2374 36.7385C71.9317 36.7385 72.5267 36.3831 72.5267 35.3709C72.5267 34.5696 71.7288 33.8088 70.8882 33.8088H70.3132V32.268C70.3132 31.0846 70.2339 30.6334 69.9714 30.323C69.5516 29.8271 68.793 29.6558 68.2358 29.9314ZM24.6096 36.5432C24.0832 37.0696 24.0936 38.127 24.6299 38.6126C24.978 38.9278 25.4479 38.9999 27.7061 39.0848C30.6427 39.1952 31.1069 39.3573 31.8118 40.5184C32.6234 41.856 32.4968 43.3075 31.4708 44.4286C30.6407 45.3359 29.937 45.5277 27.4391 45.5277C25.2987 45.5277 25.1522 45.5533 24.6985 46.0072C24.0797 46.6259 24.0875 47.3671 24.7198 47.9994C25.219 48.4984 25.2299 48.5 27.9913 48.4199C30.531 48.3464 30.8466 48.2961 31.7751 47.8156C33.0989 47.1306 34.1154 46.0771 34.7361 44.7464C36.1787 41.6546 34.5496 37.7579 31.3073 36.5448C30.4483 36.2235 29.7843 36.1526 27.6296 36.1526C25.2606 36.1526 24.9616 36.1913 24.6096 36.5432ZM64.2584 38.301C64.0211 38.5383 63.8678 38.952 63.8678 39.355C63.8678 40.1919 64.7657 41.0284 66.593 41.8942C67.7821 42.4579 68.0221 42.5003 70.0202 42.5003C72.015 42.5003 72.2595 42.4573 73.4382 41.8985C75.8935 40.7349 76.788 39.338 75.7206 38.335C75.0847 37.7378 74.3683 37.8059 73.2921 38.5661C72.1253 39.3905 71.304 39.6684 70.0399 39.6671C68.6616 39.6657 67.8102 39.3934 66.6868 38.5946C65.5967 37.8196 64.8323 37.7272 64.2584 38.301ZM64.8336 47.216C65.7379 47.4675 66.1911 47.7425 66.9202 48.4828L67.8514 49.4283L64.8149 52.5072C62.2164 55.1422 61.7106 55.7555 61.3094 56.7582L60.8404 57.9301L60.7859 73.4088L60.7314 88.8875H55.073H49.4145V87.3277V85.7681L50.2853 85.5488C51.3624 85.2777 52.4495 84.2628 52.7247 83.2716C52.8366 82.869 52.9284 81.4729 52.929 80.1688L52.9302 77.7981L53.59 77.6743C54.9484 77.4194 55.6613 76.1879 55.6634 74.0924C55.6644 73.2121 55.7177 73.067 56.0392 73.067C56.6744 73.067 57.0345 72.8471 57.3279 72.2797C57.6627 71.6324 57.4084 70.6387 56.8289 70.3285C56.6324 70.2234 55.2568 70.1373 53.7722 70.1373H51.0728L50.6063 68.9166C50.3497 68.2453 49.8009 67.1091 49.3866 66.3923L48.6333 65.0886L48.6341 61.3141C48.6346 57.9678 48.6762 57.4713 49.0011 56.9389C49.3141 56.4254 50.0577 56.043 54.1273 54.3022C61.0625 51.3355 61.882 50.8984 62.6424 49.7607C63.0326 49.1767 63.3209 48.4523 63.4 47.8564C63.4701 47.3275 63.5614 46.8949 63.603 46.8949C63.6444 46.8949 64.1983 47.0394 64.8336 47.216ZM32.9691 56.7094L33.0277 57.8325H28.8186H24.6096V56.6567V55.4809L28.76 55.5336L32.9105 55.5864L32.9691 56.7094ZM65.6083 60.737C64.6432 61.5184 65.2631 63.3013 66.4999 63.3013C67.2464 63.3013 67.9694 62.5806 67.9694 61.8364C67.9694 60.628 66.5557 59.9698 65.6083 60.737ZM73.1716 60.7764C72.4599 61.3362 72.4599 62.3366 73.1716 62.8964C74.2163 63.7183 75.4695 63.1401 75.4695 61.8364C75.4695 60.5327 74.2163 59.9546 73.1716 60.7764ZM38.184 61.2143C41.0086 62.0169 43.8096 63.8359 45.6088 66.0357C46.4626 67.0794 47.852 69.4865 47.852 69.9217C47.852 70.0775 42.5404 70.1373 28.7087 70.1373H9.56513L9.86904 69.4049C11.073 66.5031 13.5931 63.8278 16.5041 62.3616C19.451 60.8774 20.1984 60.7884 29.2972 60.8388C35.8902 60.8751 37.1826 60.9298 38.184 61.2143ZM65.5192 69.2496C64.9873 69.7812 64.9356 70.0855 65.2565 70.7902C65.4739 71.267 66.1692 71.6998 66.718 71.6998C67.2317 71.6998 67.9694 70.784 67.9694 70.1461C67.9694 68.8652 66.4569 68.3117 65.5192 69.2496ZM73.0476 69.1607C72.3409 69.8674 72.6349 71.1619 73.5837 71.5226C74.2533 71.7771 75.0716 71.4447 75.366 70.7984C75.691 70.0853 75.6404 69.7826 75.1072 69.2496C74.5154 68.6576 73.5906 68.6177 73.0476 69.1607ZM52.7349 73.9459V74.8248H28.8089H4.88286V73.9459V73.067H28.8089H52.7349V73.9459ZM96.1923 76.3873L95.631 76.9733H86.5141C77.5865 76.9733 77.3865 76.9649 76.8826 76.5684C76.5996 76.3459 76.3679 76.0823 76.3679 75.9825C76.3679 75.8735 80.4275 75.8014 86.5608 75.8014H96.7537L96.1923 76.3873ZM66.0682 77.1875C65.5944 77.3629 65.0397 78.0993 65.0397 78.553C65.0397 78.7294 65.2219 79.1053 65.4446 79.3883C66.2403 80.4001 67.9694 79.846 67.9694 78.5794C67.9694 77.5098 67.0387 76.8286 66.0682 77.1875ZM50.0005 80.0592C50.0005 81.5913 49.922 82.4425 49.7661 82.5983C49.5888 82.7757 46.5118 82.8327 37.1142 82.8327C23.1871 82.8327 23.8284 82.7677 23.8284 84.1808C23.8284 84.6847 23.9594 85.0392 24.2393 85.2927C24.6288 85.6452 25.1141 85.6677 33.5167 85.7193L42.3832 85.774V87.3306V88.8875H28.7112H15.0392V87.3433V85.799L16.9722 85.732C19.2617 85.6525 19.7268 85.3906 19.7268 84.1808C19.7268 82.8614 19.5949 82.8327 13.5468 82.8327C10.6255 82.8327 8.09617 82.7794 7.92625 82.7142C7.66746 82.6149 7.61726 82.202 7.61726 80.1751V77.7545H28.8089H50.0005V80.0592ZM96.1404 80.4946L95.5025 81.0749H86.5143C78.7 81.0749 77.4654 81.035 77.0611 80.7702C76.8052 80.6026 76.5474 80.3389 76.488 80.1842C76.3951 79.9417 77.7808 79.9038 86.5792 79.9087L96.7783 79.9145L96.1404 80.4946ZM96.1404 84.5962L95.5025 85.1765H86.5243H77.5461L76.9082 84.5962L76.2703 84.0161H86.5243H96.7783L96.1404 84.5962ZM65.8836 85.604C64.9444 86.0581 64.8916 87.6087 65.7987 88.0943C67.3309 88.9142 68.8106 86.8431 67.4548 85.7767C66.8897 85.3322 66.5282 85.2923 65.8836 85.604ZM12.1095 87.3249V88.8875H11.5235H10.9376V87.3249V85.7624H11.5235H12.1095V87.3249ZM46.4848 87.3378V88.9134L45.9477 88.8515C45.419 88.7908 45.4096 88.7662 45.3536 87.2761L45.2965 85.7624H45.8907H46.4848V87.3378ZM96.3876 88.4968C96.0433 88.8773 95.7861 88.8875 86.5243 88.8875C77.2625 88.8875 77.0052 88.8773 76.6609 88.4968C76.3078 88.1066 76.3197 88.1062 86.5243 88.1062C96.7289 88.1062 96.7408 88.1066 96.3876 88.4968Z" fill="#1D1A25"/>
</svg>
