<svg width="100" height="100" viewBox="0 0 100 100" fill="none" xmlns="http://www.w3.org/2000/svg">
<path fill-rule="evenodd" clip-rule="evenodd" d="M49.3746 5.39464C47.9229 6.16116 47.9664 5.81942 47.8549 17.3021C47.7321 29.9536 48.0676 28.5946 44.0416 32.75C41.7537 35.1113 41.1318 35.8804 40.5538 37.0629C39.9041 38.3922 39.2292 40.6369 38.9705 42.3282L38.8635 43.0279L37.788 42.9388C36.1483 42.8028 35.0435 43.2004 33.8602 44.3524C33.0601 45.1317 32.776 45.5809 32.5185 46.4748C31.8739 48.7115 32.513 50.6515 34.573 52.7115C35.3237 53.4622 35.9378 54.1111 35.9378 54.1537C35.9378 54.1965 35.5643 54.2317 35.1074 54.2323C33.8106 54.2341 29.0018 54.9842 26.9498 55.5049C23.7072 56.3277 21.198 57.2824 20.6306 57.9094C20.1167 58.4772 20.2697 59.4661 20.9497 59.9716C21.4844 60.369 21.5138 60.3702 22.4151 60.0308C28.669 57.6763 34.5861 56.7831 42.2881 57.0315C59.052 57.5717 68.0776 63.786 70.5261 76.4739C70.743 77.5978 70.9761 79.4276 71.0441 80.5404L71.168 82.5633H55.4461C39.894 82.5633 39.7193 82.5676 39.2965 82.9617C38.7216 83.4973 38.7216 84.5602 39.2965 85.0958C39.7197 85.4901 39.8895 85.4942 56.159 85.4942H72.5941L73.007 86.4711L73.4197 87.4481H40.122H6.82431V86.7945C6.82431 85.4221 6.05349 85.4942 20.7246 85.4942C33.724 85.4942 33.9163 85.4885 34.3378 85.0958C34.9126 84.5602 34.9126 83.4973 34.3378 82.9617C33.9169 82.5695 33.7186 82.5633 21.6075 82.5633H9.30502L9.4289 80.5404C9.84079 73.8073 12.1624 68.1722 16.1385 64.2542C17.1172 63.2901 17.3755 62.9118 17.3755 62.4435C17.3755 61.648 16.7655 61.0701 15.9259 61.0701C14.2283 61.0701 10.2384 66.2013 8.55667 70.5466C7.3761 73.5971 6.43353 78.4426 6.43353 81.4611C6.43353 82.6799 6.43118 82.6852 5.5906 83.2776C4.59468 83.9795 4.05208 85.0082 3.93211 86.4223L3.84496 87.4481H3.0798C1.9348 87.4481 0.847246 88.0884 0.355637 89.0517C0.0101827 89.7291 -0.0456997 90.1078 0.0291358 91.2719C0.136016 92.9394 0.620395 93.8595 1.80272 94.6419L2.59484 95.1661H50.0061H97.4174L98.2095 94.6419C99.3919 93.8595 99.8762 92.9394 99.9831 91.2719C100.098 89.4874 99.6334 88.4356 98.4686 87.8414C97.791 87.4958 97.3189 87.4481 94.5743 87.4481H91.4509L91.904 86.4223C92.6389 84.7591 92.8599 83.391 92.7528 81.1672C92.6461 78.9454 92.4118 78.2234 91.6918 77.8953C91.0287 77.5933 90.7608 77.622 90.2299 78.0522C89.7838 78.4135 89.7686 78.519 89.7686 81.2274C89.7686 83.8671 89.7379 84.0942 89.2375 85.162C88.9456 85.7853 88.521 86.5561 88.2939 86.8748L87.8815 87.4542L82.3982 87.4022C76.2659 87.3443 76.6884 87.4561 76.4795 85.8351C76.3973 85.1954 76.144 84.6233 75.6663 83.9973L74.9725 83.0885L75.0635 81.3116C75.1401 79.8141 75.3283 79.0167 76.2601 76.2396C78.1427 70.6285 78.9133 66.9045 78.9208 63.382C78.9227 62.4503 78.9776 61.5492 79.0429 61.3792C79.1445 61.1142 79.6306 61.0701 82.4394 61.0701C86.2484 61.0701 85.9486 60.8622 85.9594 63.5125C85.9709 66.4012 87.0893 72.3952 87.8271 73.5232C88.4049 74.4064 89.8393 74.2769 90.2838 73.3013C90.4569 72.9214 90.3975 72.421 89.9876 70.8071C89.3442 68.2734 88.9483 65.5008 88.834 62.7301L88.7455 60.5798L89.8159 60.1074C91.9294 59.1746 93.517 57.062 93.9779 54.5684C94.0885 53.9705 94.1977 52.3682 94.2208 51.0079C94.2618 48.5835 94.253 48.5268 93.7741 48.1353C93.3179 47.7621 93.0986 47.7423 90.4524 47.8359C87.4186 47.9434 85.7712 48.3105 84.6086 49.1384L84.0045 49.5685V48.0059V46.4433L85.0395 46.1424C87.1321 45.5342 89.226 43.7837 90.218 41.8133C91.8987 38.4746 90.4784 33.5412 86.7009 29.5966C85.4631 28.3041 84.3617 27.8533 82.4413 27.8533C80.5388 27.8533 79.4815 28.2863 78.2099 29.5862C74.4322 33.4484 72.9781 38.4631 74.6647 41.8133C75.6567 43.7837 77.7505 45.5342 79.8432 46.1424L80.8782 46.4433V52.2913V58.1392H79.8162C78.5907 58.1392 77.8436 58.3797 77.196 58.9827C76.3271 59.7916 76.1636 60.401 75.9867 63.4853C75.7833 67.0376 75.2775 69.7777 74.2081 73.1233L73.4109 75.6163L72.9642 73.863C72.3802 71.5709 71.6824 69.7559 70.6113 67.7425L69.7408 66.1061L69.7367 56.6028C69.7306 42.8544 69.4942 40.3891 67.8629 37.0629C67.2843 35.8833 66.6548 35.1055 64.3726 32.75C60.3465 28.5946 60.682 29.9536 60.5593 17.3021C60.4473 5.78132 60.4956 6.14905 58.9979 5.38506C58.298 5.02808 57.8592 4.9931 54.166 5.00092C50.5112 5.00873 50.0308 5.0482 49.3746 5.39464ZM57.6264 10.7564V13.5896H54.2071H50.7877V10.7564V7.92321H54.2071H57.6264V10.7564ZM57.6264 21.5112C57.6264 29.4199 58.0387 30.6408 62.0439 34.5943C64.7159 37.2318 65.2227 37.9461 65.9584 40.1105C66.3994 41.4081 66.4883 42.0611 66.5706 44.6082L66.6669 47.588H66.0455C65.2778 47.588 64.4652 48.3414 64.4652 49.0534C64.4652 49.7521 65.2782 50.5189 66.0195 50.5189H66.6145V56.3851V62.2514L64.9785 60.928C60.3893 57.2159 53.7895 54.8738 46.3324 54.3108C45.3439 54.2364 44.5351 54.1354 44.5351 54.0865C44.5351 54.0379 44.9785 53.5994 45.5201 53.1123C46.0619 52.6252 46.7694 51.8424 47.0926 51.3727L47.6802 50.5189H53.6391H59.5982L60.0777 50.0392C60.3414 49.7754 60.5573 49.3318 60.5573 49.0534C60.5573 48.775 60.3414 48.3314 60.0777 48.0676L59.5982 47.588H53.9366H48.2753L47.9516 46.4645C47.6976 45.583 47.4103 45.1295 46.6188 44.3599C45.4885 43.2608 44.5738 42.8985 42.93 42.8985H41.8588L42.0273 41.8241C42.2303 40.529 42.8602 38.7857 43.5097 37.7206C43.7719 37.2908 45.0562 35.8839 46.364 34.5943C50.3764 30.6374 50.7877 29.4209 50.7877 21.5112V16.5205H54.2071H57.6264V21.5112ZM83.8941 31.0439C84.3306 31.3631 84.1575 31.7498 83.1401 32.7287L82.439 33.4032L81.5609 32.5415C80.606 31.6042 80.5005 31.3006 81.0247 30.9952C81.5212 30.706 83.4775 30.7392 83.8941 31.0439ZM85.2538 40.791C85.9936 42.0572 85.8871 42.4956 84.6968 43.0853C81.7749 44.5328 77.6484 42.6535 76.9881 39.5747C76.7155 38.3037 76.9795 36.9535 77.8664 35.0828L78.5612 33.6174L81.6383 36.7437C83.3308 38.4631 84.9578 40.2846 85.2538 40.791ZM87.2402 35.542C87.7707 36.7009 88.1982 38.6685 88.0202 39.1323C87.9358 39.3522 87.7461 39.2056 87.2998 38.5757C86.9664 38.1054 86.2019 37.2155 85.6004 36.5981L84.5072 35.4758L85.3652 34.6014C86.3512 33.5969 86.3492 33.5961 87.2402 35.542ZM38.9156 46.611C39.4385 47.1133 39.9104 47.3926 40.2365 47.3926C40.5626 47.3926 41.0345 47.1133 41.5573 46.611C42.2229 45.9715 42.5095 45.8294 43.1336 45.8294C44.5701 45.8294 45.5504 47.1987 45.1504 48.6472C44.8544 49.7193 44.2659 50.4012 42.1752 52.0943L40.2365 53.6643L38.2978 52.0943C36.2071 50.4012 35.6186 49.7193 35.3226 48.6472C34.9226 47.1987 35.9029 45.8294 37.3394 45.8294C37.9635 45.8294 38.2501 45.9715 38.9156 46.611ZM91.3344 51.5447C91.2864 52.0013 91.1985 52.8872 91.1394 53.5131C90.9501 55.5152 89.7977 57.093 88.1247 57.6407C87.6318 57.8021 86.5032 57.993 85.6165 58.0647L84.0045 58.1954V56.8422C84.0045 52.632 85.8744 50.7889 90.2045 50.7307L91.422 50.7142L91.3344 51.5447ZM97.0958 90.9986C97.0958 91.3393 96.9502 91.779 96.7724 91.9755C96.461 92.3198 94.7523 92.3329 50.0401 92.3329C7.1303 92.3329 3.60424 92.3085 3.27383 92.0095C3.0632 91.819 2.91646 91.4177 2.91646 91.0326V90.379H50.0061H97.0958V90.9986Z" fill="#FEA02F"/>
</svg>
