<svg width="100" height="100" viewBox="0 0 100 100" fill="none" xmlns="http://www.w3.org/2000/svg">
<path fill-rule="evenodd" clip-rule="evenodd" d="M32.1379 1.12117L31.18 2.24214L33.4798 4.54859C34.7448 5.81694 35.8754 6.85484 35.9921 6.85484C36.2587 6.85484 38.1048 4.99597 38.1048 4.72762C38.1048 4.44778 33.6119 0 33.329 0C33.2006 0 32.6647 0.504436 32.1379 1.12117ZM64.1123 2.31915L61.7998 4.6381L62.9558 5.79415L64.1119 6.9502L66.4308 4.6377C67.7065 3.36573 68.75 2.22944 68.75 2.1127C68.75 1.84617 66.8911 0 66.6228 0C66.5139 0 65.3843 1.04355 64.1123 2.31915ZM43.6839 6.12581C41.7978 6.65181 40.1337 8.35302 39.2238 10.6855C38.7563 11.8845 38.6 14.3304 38.8992 15.77C39.4123 18.2385 40.046 19.1099 44.8417 23.9423C48.9288 28.0607 49.3512 28.4288 49.9883 28.4282C50.619 28.4274 51.0387 28.0742 54.5992 24.5464C56.7534 22.4117 58.9079 20.1413 59.3867 19.501C63.3629 14.1823 60.6044 5.9504 54.8526 5.96976C53.2764 5.9752 52.0508 6.46028 50.8323 7.56129L50 8.31311L49.1677 7.56129C47.6097 6.15343 45.5339 5.61008 43.6839 6.12581ZM29.0323 10.6855V12.2984H32.2581H35.4839V10.6855V9.07258H32.2581H29.0323V10.6855ZM47.7778 10.7696C49.879 12.8143 50.0875 12.8155 52.2077 10.7958C54.3811 8.7256 55.2548 8.58629 56.6784 10.0829C57.6784 11.1339 58.145 12.5891 58.0123 14.2423C57.8395 16.3948 57.2754 17.2355 53.4343 21.0663L50 24.4915L46.5657 21.0663C42.7246 17.2355 42.1605 16.3948 41.9877 14.2423C41.8625 12.6815 42.2655 11.3123 43.1756 10.2083C43.9454 9.27439 44.4222 9.05282 45.4321 9.15927C46.0752 9.22702 46.4742 9.50101 47.7778 10.7696ZM64.5161 10.6855V12.2984H67.7419H70.9677V10.6855V9.07258H67.7419H64.5161V10.6855ZM21.4627 36.9869C20.9716 37.4778 20.9677 37.5119 20.9677 41.3486C20.9677 43.7292 21.0589 45.5196 21.2048 46.0067C21.4944 46.973 22.7512 48.4433 23.5819 48.7875L24.1935 49.0409V50.8308V52.621H20.6562C15.8369 52.621 16.129 52.3087 16.129 57.4597C16.129 61.2774 16.1331 61.3127 16.624 61.8034L17.1187 62.2984L24.6381 62.2992L32.1573 62.3002L38.6089 65.8825L45.0605 69.4647L45.1127 79.6919C45.1565 88.2601 45.12 89.9194 44.8879 89.9194C44.2256 89.9194 41.725 91.396 40.9341 92.2542C39.7802 93.5058 38.9317 95.3849 38.7782 97.0278C38.6629 98.2633 38.6893 98.3849 39.177 98.8728L39.6994 99.3952H50H60.3006L60.823 98.8728C61.3107 98.3849 61.3371 98.2633 61.2218 97.0278C61.0683 95.3849 60.2198 93.5058 59.0659 92.2542C58.275 91.396 55.7744 89.9194 55.1121 89.9194C54.88 89.9194 54.8435 88.2601 54.8873 79.6919L54.9395 69.4647L61.3911 65.8825L67.8427 62.3002L75.3619 62.2992L82.8812 62.2984L83.376 61.8034C83.8669 61.3127 83.871 61.2774 83.871 57.4597C83.871 52.3087 84.1631 52.621 79.3438 52.621H75.8064V50.82C75.8064 49.177 75.8429 49.0075 76.223 48.8869C76.9698 48.6498 78.078 47.5044 78.5583 46.4732C79.0006 45.5234 79.0284 45.2278 79.0302 41.4728C79.0329 36.1248 79.3893 36.4919 74.1936 36.4919C69.0095 36.4919 69.3548 36.1454 69.3548 41.3486C69.3548 43.7292 69.446 45.5196 69.5919 46.0067C69.8815 46.973 71.1383 48.4433 71.969 48.7875L72.5806 49.0409V50.8308V52.621H68.5484H64.5161V49.8901C64.5161 47.2593 64.498 47.1409 64.0212 46.6643C63.6093 46.2522 63.3298 46.1694 62.3544 46.1694H61.1825L60.8282 44.8192C59.8645 41.1444 57.0859 38.2768 53.2258 36.9732C51.6873 36.4536 48.3127 36.4536 46.7742 36.9732C42.8603 38.295 39.9373 41.38 39.0637 45.1109L38.8159 46.1694H37.6448C36.6702 46.1694 36.3905 46.2524 35.9788 46.6643C35.502 47.1409 35.4839 47.2593 35.4839 49.8901V52.621H31.4516H27.4194V50.82C27.4194 49.177 27.4558 49.0075 27.8359 48.8869C28.5827 48.6498 29.6909 47.5044 30.1712 46.4732C30.6135 45.5234 30.6413 45.2278 30.6431 41.4728C30.6458 36.1248 31.0022 36.4919 25.8065 36.4919C21.9887 36.4919 21.9534 36.496 21.4627 36.9869ZM27.4194 42.4486C27.4194 45.0794 27.4012 45.1978 26.9244 45.6744C26.6125 45.9865 26.1992 46.1694 25.8065 46.1694C25.4137 46.1694 25.0004 45.9865 24.6885 45.6744C24.2117 45.1978 24.1935 45.0794 24.1935 42.4486V39.7177H25.8065H27.4194V42.4486ZM53.3123 40.4879C55.081 41.3155 56.2998 42.4942 57.1552 44.204C57.5444 44.9821 57.8629 45.7425 57.8629 45.894C57.8629 46.122 56.5111 46.1694 50 46.1694C43.4889 46.1694 42.1371 46.122 42.1371 45.894C42.1371 45.2482 43.6133 42.7335 44.4395 41.972C45.4103 41.077 46.9518 40.2226 48.1343 39.9238C49.5556 39.5645 51.8804 39.8179 53.3123 40.4879ZM75.8064 42.4486C75.8064 45.0794 75.7883 45.1978 75.3115 45.6744C74.9996 45.9865 74.5863 46.1694 74.1936 46.1694C73.8008 46.1694 73.3875 45.9865 73.0756 45.6744C72.5988 45.1978 72.5806 45.0794 72.5806 42.4486V39.7177H74.1936H75.8064V42.4486ZM0.49496 49.8901L0 50.3849V74.3952V98.4054L0.49496 98.9002C0.985685 99.3911 1.02097 99.3952 4.83871 99.3952C8.65645 99.3952 8.69173 99.3911 9.18246 98.9002L9.67742 98.4054V93.255V88.1048H12.9032H16.129V93.255V98.4054L16.624 98.9002C17.1147 99.3911 17.15 99.3952 20.9677 99.3952C24.8034 99.3952 24.8185 99.3933 25.3202 98.8917L25.8238 98.3881L25.7647 88.1558L25.7056 77.9234L25.0657 76.5724C24.2514 74.8536 22.9286 73.5309 21.2099 72.7165L19.8589 72.0766L14.7681 72.0109L9.67742 71.9452V61.1651V50.3849L9.18246 49.8901C8.69173 49.3992 8.65645 49.3952 4.83871 49.3952C1.02097 49.3952 0.985685 49.3992 0.49496 49.8901ZM61.2903 51.0081V52.621H50H38.7097V51.0081V49.3952H50H61.2903V51.0081ZM90.8175 49.8901L90.3226 50.3849V61.1651V71.9452L85.2319 72.0109L80.1411 72.0766L78.7901 72.7165C77.0714 73.5309 75.7486 74.8536 74.9343 76.5724L74.2944 77.9234L74.2353 88.1558L74.1762 98.3881L74.6798 98.8917C75.1814 99.3933 75.1966 99.3952 79.0323 99.3952C82.85 99.3952 82.8853 99.3911 83.376 98.9002L83.871 98.4054V93.255V88.1048H87.0968H90.3226V93.255V98.4054L90.8175 98.9002C91.3083 99.3911 91.3436 99.3952 95.1613 99.3952C98.979 99.3952 99.0143 99.3911 99.505 98.9002L100 98.4054V74.3952V50.3849L99.505 49.8901C99.0143 49.3992 98.979 49.3952 95.1613 49.3952C91.3436 49.3952 91.3083 49.3992 90.8175 49.8901ZM6.45161 66.6421V80.6635L6.94657 81.1583L7.44133 81.6532H15.0111H22.5806V88.9113V96.1694H20.9677H19.3548V91.0191V85.8688L18.8599 85.374L18.3651 84.879H12.9032H7.44133L6.94657 85.374L6.45161 85.8688V91.0191V96.1694H4.83871H3.22581V74.3952V52.621H4.83871H6.45161V66.6421ZM96.7742 74.3952V96.1694H95.1613H93.5484V91.0191V85.8688L93.0534 85.374L92.5587 84.879H87.0968H81.6349L81.1401 85.374L80.6452 85.8688V91.0191V96.1694H79.0323H77.4194V88.9113V81.6532H84.9889H92.5587L93.0534 81.1583L93.5484 80.6635V66.6421V52.621H95.1613H96.7742V74.3952ZM23.3359 57.3889C24.8611 58.2371 26.1466 58.9629 26.1929 59.0018C26.2391 59.0407 24.7194 59.0726 22.8159 59.0726H19.3548V57.4597V55.8468H19.9589C20.3357 55.8468 21.6067 56.4272 23.3359 57.3889ZM72.5522 55.9423C72.4998 55.995 67.404 58.8454 61.2284 62.2768L50 68.5157L38.7716 62.2768C32.596 58.8454 27.5002 55.995 27.4478 55.9423C27.3952 55.8897 37.5438 55.8468 50 55.8468C62.4562 55.8468 72.6048 55.8897 72.5522 55.9423ZM80.6452 57.4597V59.0726L77.1673 59.069L73.6895 59.0653L75.9073 57.8339C77.127 57.1567 78.3972 56.4339 78.7298 56.228C79.0625 56.022 79.6294 55.852 79.9899 55.8502L80.6452 55.8468V57.4597ZM50 71.9758C50.2329 71.9758 50.6909 71.8373 51.0181 71.6681L51.6129 71.3607V81.6573V91.9538L52.1079 92.4486C52.4256 92.7665 52.8319 92.9436 53.2437 92.9436C54.5056 92.9436 55.5194 93.4089 56.6028 94.4861C58.3879 96.2605 58.7456 96.1694 50 96.1694C41.2544 96.1694 41.6121 96.2605 43.3972 94.4861C44.4806 93.4089 45.4944 92.9436 46.7562 92.9436C47.1681 92.9436 47.5744 92.7665 47.8921 92.4486L48.3871 91.9538V81.6573V71.3607L48.9819 71.6681C49.3091 71.8373 49.7671 71.9758 50 71.9758ZM19.7581 75.6218C20.8831 76.1319 21.4988 76.6948 21.9996 77.6714L22.3873 78.4274H16.0323H9.67742V76.8145V75.2016L14.2641 75.206C18.4444 75.2101 18.9312 75.247 19.7581 75.6218ZM90.3226 76.8145V78.4274H83.9677H77.6127L78.0004 77.6714C78.5012 76.6948 79.1169 76.1319 80.2419 75.6218C81.0687 75.247 81.5556 75.2101 85.7359 75.206L90.3226 75.2016V76.8145Z" fill="#1D1A25"/>
</svg>
