<svg width="100" height="100" viewBox="0 0 100 100" fill="none" xmlns="http://www.w3.org/2000/svg">
<path fill-rule="evenodd" clip-rule="evenodd" d="M23.5073 0.168816C21.7054 0.642236 20.1228 1.94195 19.3117 3.61386C18.9264 4.40831 18.8368 4.90087 18.8317 6.25158C18.8258 7.77442 18.8805 8.01474 19.4891 9.14349C20.2285 10.5147 20.8416 11.1067 22.314 11.8719C23.1649 12.314 23.5563 12.3904 24.9727 12.3904C26.389 12.3904 26.7804 12.314 27.6313 11.8719C29.1037 11.1067 29.7168 10.5147 30.4562 9.14349C31.064 8.01611 31.1197 7.77246 31.1158 6.25158C31.1121 4.8403 31.0335 4.44093 30.5929 3.59296C29.8315 2.12776 29.2348 1.50623 27.9136 0.802062C26.6542 0.130715 24.7134 -0.148296 23.5073 0.168816ZM85.9613 0.305C85.7083 0.487295 85.3773 0.932776 85.2261 1.29483C84.8374 2.22486 85.1829 2.92982 86.7694 4.44426C87.8604 5.48586 88.1535 5.66542 88.7621 5.66542C89.6904 5.66542 90.1558 5.40184 90.54 4.65899C91.0544 3.66408 90.7836 2.98179 89.283 1.49275C88.1945 0.412658 87.8034 0.147323 87.1834 0.0693642C86.6551 0.00273748 86.2805 0.0750304 85.9613 0.305ZM96.9725 0.35834C96.6501 0.555094 95.9246 1.22136 95.3605 1.83878C94.4616 2.82275 94.3348 3.06366 94.3348 3.78834C94.3348 4.92373 95.0872 5.66542 96.2394 5.66542C96.9512 5.66542 97.1907 5.53314 98.2427 4.55934C99.9419 2.98589 100.284 2.2024 99.7675 1.06837C99.5064 0.495306 98.6889 -0.00117025 98.008 2.07192e-06C97.7608 0.000392844 97.2949 0.161586 96.9725 0.35834ZM68.0553 2.03006C67.2198 2.39192 66.942 2.80575 66.7595 3.9595C66.47 5.79164 65.4793 6.59096 63.1789 6.84887C59.7471 7.23378 57.2747 9.72887 57.0586 13.0254C56.9732 14.3263 57.0021 14.4617 57.463 14.9224C58.1516 15.6112 58.8657 15.7522 59.6852 15.3615C60.3805 15.0297 60.9231 14.1026 60.9245 13.2429C60.9255 12.6493 61.565 11.6278 62.1937 11.216C62.4725 11.0333 63.4481 10.764 64.3615 10.6179C66.4701 10.2802 67.6376 9.6851 68.8992 8.3047C70.3071 6.76408 71.0254 4.41593 70.5064 3.05057C70.1583 2.13499 68.9625 1.63714 68.0553 2.03006ZM26.6153 4.67774C27.1284 5.19102 27.2196 5.42842 27.2196 6.25158C27.2196 7.08588 27.1307 7.30999 26.5809 7.8598C26.0311 8.40962 25.807 8.49852 24.9727 8.49852C24.1384 8.49852 23.9143 8.40962 23.3644 7.8598C22.8168 7.31213 22.7257 7.08431 22.7257 6.2635C22.7257 5.25921 23.2238 4.46536 24.0934 4.08338C24.824 3.76255 25.9701 4.03258 26.6153 4.67774ZM42.5789 8.08743C42.0367 8.38774 41.5973 9.1005 41.5873 9.69526C41.5836 9.92367 41.887 10.783 42.2616 11.605C45.6154 18.9646 45.2457 26.8636 41.2296 33.6539L40.3343 35.1676L35.9028 30.7737C32.8444 27.7415 31.2059 26.2595 30.6154 25.9916C28.627 25.0895 25.906 25.7691 24.7386 27.4594C24.0819 28.4103 0.187139 93.4958 0.0302439 94.7615C-0.193082 96.5616 0.838947 98.5116 2.51243 99.4508C3.2209 99.8484 3.63649 99.9365 4.75019 99.9248C6.00027 99.9115 6.6638 99.7075 12.4679 97.5516C18.0388 95.4823 34.8967 89.2968 63.2684 78.912C67.966 77.1926 72.1135 75.5609 72.5408 75.2643C74.2326 74.09 74.9104 71.3726 74.0078 69.383C73.7371 68.7865 72.2153 67.1111 69.0084 63.8786L64.3981 59.2317L65.5813 58.3607C67.2544 57.129 70.3122 55.6042 72.6782 54.8217C75.4097 53.9182 77.8709 53.5348 80.9363 53.5358C85.1219 53.5372 88.1523 54.1933 92.3455 56.0063C94.1827 56.8005 94.4213 56.8584 95.0315 56.6569C95.8711 56.3799 96.2886 55.7972 96.2886 54.9027C96.2886 53.9432 95.8662 53.428 94.5235 52.7502C89.9223 50.4274 85.4605 49.5001 79.7785 49.6855C76.3416 49.7975 74.0685 50.1896 71.0838 51.1851C69.0152 51.875 64.8502 54.0298 63.1707 55.2789L61.6076 56.4412L60.0466 54.8912L58.4857 53.341L60.9476 50.8491C62.3018 49.4786 63.5536 48.1398 63.7297 47.8741C64.2054 47.1565 64.1324 46.2383 63.544 45.5392C63.1148 45.0289 62.9028 44.938 62.1427 44.938C61.2522 44.938 61.2313 44.9539 58.4435 47.7178L55.6399 50.4974L49.375 44.2325L43.1104 37.9678L44.0265 36.5513C45.7828 33.8364 47.2197 30.3269 47.9557 26.9547C48.5198 24.3703 48.4733 18.7516 47.8657 16.0367C47.0351 12.3267 45.379 8.48543 44.422 8.04952C43.7626 7.74902 43.1672 7.76133 42.5789 8.08743ZM87.5879 9.72242C86.5101 10.5061 85.1565 12.0796 85.1291 12.5803C85.0885 13.3234 85.1792 13.7673 85.4617 14.2083C85.7682 14.687 86.7542 15.0195 87.4644 14.8837C88.0324 14.7753 90.1498 12.8382 90.5533 12.0579C91.1584 10.8879 90.3934 9.47311 89.0384 9.25603C88.5119 9.17182 88.2135 9.26775 87.5879 9.72242ZM95.2677 9.47721C94.5907 9.85704 94.3348 10.3398 94.3348 11.238C94.3348 11.8467 94.5143 12.1397 95.5559 13.2308C97.0756 14.8228 97.7745 15.1631 98.7157 14.7698C99.6444 14.3818 100.081 13.6585 99.9337 12.7517C99.8439 12.1984 99.506 11.7193 98.485 10.6984C97.0104 9.2236 96.2407 8.93149 95.2677 9.47721ZM84.3396 20.201C81.5059 21.2131 79.8303 23.3531 79.4823 26.4045C79.2023 28.8589 78.4524 29.764 76.4247 30.094C75.2166 30.2905 74.904 30.4859 74.4779 31.3099C74.0816 32.076 74.2909 32.8884 75.0486 33.5259C75.6087 33.9974 75.7725 34.0343 76.9008 33.9437C79.2896 33.752 81.5524 32.1789 82.6241 29.9652C82.8558 29.4865 83.1624 28.312 83.3052 27.3558C83.4482 26.3994 83.7112 25.3938 83.89 25.1208C84.3472 24.4233 85.2864 23.9049 86.3765 23.7492C87.7489 23.5528 88.3755 22.9372 88.3755 21.7848C88.3755 21.0267 88.2825 20.7916 87.8272 20.4001C87.3829 20.0179 87.0685 19.9302 86.1664 19.9372C85.5545 19.9419 84.7325 20.0605 84.3396 20.201ZM59.556 21.0013C58.0728 21.4858 56.811 22.6036 56.0391 24.1171C55.4332 25.3051 55.3556 25.6269 55.3593 26.9428C55.3642 28.7775 55.8607 29.9828 57.1537 31.2991C58.3958 32.5637 59.6613 33.0881 61.5099 33.1043C63.2668 33.1195 64.7361 32.5287 65.9432 31.3216C67.1983 30.0664 67.6544 28.9068 67.6579 26.9625C67.6612 25.0395 67.2818 23.9964 66.1059 22.6947C64.6109 21.0398 61.723 20.2932 59.556 21.0013ZM62.6886 24.9143C63.9854 25.5848 64.208 27.4807 63.1181 28.5707C61.9761 29.7126 60.1439 29.3621 59.43 27.8648C58.491 25.8957 60.7066 23.8893 62.6886 24.9143ZM49.7375 50.2619C64.8678 65.3918 70.4976 71.1395 70.4976 71.4568C70.4976 71.6972 70.3005 72.0151 70.058 72.1659C69.8161 72.3163 66.9998 73.3906 63.7992 74.5531L57.98 76.6668L52.1663 70.8648C46.4122 65.1224 46.344 65.0628 45.5404 65.0628C44.3251 65.0628 43.632 65.7303 43.632 66.9006V67.7955L48.7988 72.965C53.7024 77.8714 53.9412 78.1437 53.4881 78.3155C53.2255 78.4149 51.9719 78.8753 50.7025 79.3383L48.3944 80.1802L34.1072 65.893L19.8199 51.6058L20.6619 49.2977C21.1249 48.0283 21.5852 46.7747 21.6847 46.5121C21.8564 46.059 22.1288 46.2977 27.0352 51.2013L32.2047 56.3681H33.0995C34.2699 56.3681 34.9374 55.6751 34.9374 54.4598C34.9374 53.6562 34.8776 53.588 29.1361 47.8348L23.3351 42.0217L25.449 36.2017C26.6118 33.0007 27.6856 30.184 27.8355 29.9422C27.9857 29.6995 28.3026 29.5025 28.5426 29.5025C28.8591 29.5025 34.6273 35.1521 49.7375 50.2619ZM91.4217 31.9988C90.191 32.48 88.7817 33.8249 88.141 35.1291C87.6789 36.0701 87.5943 36.4864 87.5969 37.8064C87.6002 39.6364 88.0027 40.7029 89.1838 42.0129C91.5384 44.6241 95.9588 44.6241 98.3134 42.0129C99.4967 40.7005 99.8974 39.6364 99.8974 37.8064C99.8974 35.9575 99.4838 34.8772 98.273 33.5636C97.0594 32.2471 95.9303 31.7632 93.944 31.7081C92.7453 31.6746 92.0435 31.7555 91.4217 31.9988ZM95.0739 35.8645C95.6227 36.2488 96.0932 37.1453 96.0932 37.8064C96.0932 38.4676 95.6227 39.3641 95.0739 39.7484C94.8342 39.9164 94.2388 40.0534 93.7486 40.0534C92.7388 40.0534 92.1202 39.6995 91.6959 38.8789C91.1595 37.8416 91.4766 36.5275 92.4233 35.8645C92.663 35.6965 93.2584 35.5595 93.7486 35.5595C94.2388 35.5595 94.8342 35.6965 95.0739 35.8645ZM67.3461 38.8262C65.885 40.1927 65.5456 41.0215 66.0204 42.0635C66.2781 42.629 67.1618 43.1796 67.8119 43.1796C68.9684 43.1796 71.0838 40.9401 71.0838 39.716C71.0838 38.7255 70.2009 37.9041 69.1366 37.9041C68.4467 37.9041 68.1909 38.0358 67.3461 38.8262ZM44.1647 81.6867C44.0427 81.7935 41.4027 82.7732 32.8696 85.8787L31.0951 86.5246L22.2814 77.6986L13.4679 68.8728L15.8016 62.5228C17.0853 59.0303 18.1832 56.0452 18.2414 55.8892C18.3123 55.6993 22.6413 59.8992 31.327 68.5841C38.4658 75.7223 44.2428 81.6185 44.1647 81.6867ZM38.2259 59.1094C37.224 59.6534 37.063 61.295 37.9336 62.091C39.2726 63.3155 41.1897 62.4163 41.1897 60.5637C41.1897 59.2069 39.5383 58.3966 38.2259 59.1094ZM86.1285 68.2423C85.5119 68.5489 84.95 69.6894 85.0846 70.3607C85.1422 70.6477 85.811 71.4916 86.6102 72.2853C87.8548 73.5215 88.1227 73.6989 88.7461 73.6989C89.6377 73.6989 90.2942 73.28 90.6146 72.5064C90.9792 71.6262 90.7312 71.0094 89.489 69.707C87.8974 68.0382 87.1735 67.7226 86.1285 68.2423ZM96.7458 68.554C96.3203 68.8623 95.6044 69.5438 95.1548 70.0682C94.1331 71.2603 94.0239 72.3187 94.8383 73.133C95.8187 74.1135 96.9041 73.9023 98.3959 72.4406C100.205 70.6679 100.433 69.7538 99.3366 68.6579C98.5008 67.8221 97.7954 67.7937 96.7458 68.554ZM19.5919 80.4907C23.6702 84.57 26.9634 87.9511 26.9101 88.0045C26.857 88.0576 25.6299 88.5375 24.1835 89.0705L21.5534 90.0398L15.7594 84.2634L9.96563 78.4868L10.652 76.6107C11.0295 75.5787 11.4689 74.3607 11.6284 73.904C11.788 73.4474 11.9765 73.0737 12.0477 73.0737C12.1186 73.0737 15.5136 76.4112 19.5919 80.4907ZM87.9331 77.4921C87.0951 77.9155 85.2288 79.9421 85.1114 80.556C84.8359 81.9981 86.2145 83.2982 87.5515 82.857C88.2186 82.6368 90.2051 80.7474 90.6181 79.9405C90.9327 79.3254 90.7217 78.3151 90.1705 77.7971C89.5542 77.2184 88.7043 77.1025 87.9331 77.4921ZM95.376 77.4616C94.6249 77.7883 94.3348 78.2838 94.3348 79.24C94.3348 79.8737 94.5114 80.1421 95.7867 81.4465C97.1362 82.8271 97.2958 82.9319 98.0535 82.9319C98.7323 82.9319 98.967 82.8217 99.4568 82.2734C99.9625 81.7076 100.03 81.5055 99.94 80.8332C99.8568 80.2125 99.6004 79.8121 98.6969 78.8923C97.5729 77.7477 96.7443 77.1695 96.2495 77.1844C96.1098 77.1887 95.7167 77.3133 95.376 77.4616ZM13.0469 87.0363C15.4589 89.4503 17.3899 91.4677 17.3381 91.5197C17.2862 91.5714 14.4537 92.6355 11.0438 93.884C7.16946 95.3025 4.70173 96.1091 4.46492 96.0341C4.25664 95.968 4.03253 95.7447 3.96708 95.538C3.85083 95.1718 8.30094 82.6476 8.54713 82.6476C8.60985 82.6476 10.6346 84.6225 13.0469 87.0363Z" fill="#FEA02F"/>
</svg>
