<svg width="100" height="100" viewBox="0 0 100 100" fill="none" xmlns="http://www.w3.org/2000/svg">
<path fill-rule="evenodd" clip-rule="evenodd" d="M16.5457 0.278686C15.6336 0.603735 14.5728 1.58376 14.0638 2.57082C13.7212 3.23595 13.6905 3.7656 13.6905 9.04037V14.7854L12.9584 14.9204C11.9165 15.1121 10.6786 15.6897 9.57714 16.4984C8.80874 17.0626 7.79767 18.4221 4.3131 23.5778L0 29.9589L0.0611054 34.1562C0.120454 38.2198 0.138805 38.3885 0.636823 39.4507C1.36052 40.994 2.39307 42.0525 3.89708 42.7928C5.0083 43.34 5.39484 43.429 6.65795 43.4292C7.46579 43.4294 8.45616 43.3595 8.85872 43.2742L9.59081 43.1188V62.7479C9.59081 82.1165 9.59608 82.382 9.98126 82.7672C10.6157 83.4017 11.4454 83.3548 12.0799 82.6487L12.5192 82.1597V61.7532V41.3468L13.2845 41.9529C14.716 43.0868 15.7425 43.4282 17.6926 43.4197C19.7657 43.4105 20.7948 43.0286 22.1756 41.7559L23.0586 40.9419L23.792 41.6568C24.1954 42.05 25.0087 42.6097 25.5992 42.9006C26.5256 43.3568 26.9141 43.4294 28.43 43.4294C29.9114 43.4294 30.3555 43.3504 31.2608 42.9255C31.8513 42.6485 32.6793 42.0966 33.1006 41.6991L33.8668 40.9764L34.5647 41.6529C34.9487 42.025 35.746 42.5745 36.3366 42.8742C37.2717 43.3486 37.6372 43.4197 39.1674 43.4241C40.6645 43.4286 41.0866 43.3533 42.0215 42.915C42.625 42.6319 43.4674 42.0855 43.8938 41.7003L44.6688 41L45.235 41.5912C45.5465 41.9162 46.3714 42.4629 47.0679 42.8059C48.193 43.3595 48.5214 43.4294 50.0023 43.4294C51.4833 43.4294 51.8117 43.3595 52.9368 42.8059C53.6333 42.4629 54.4582 41.9162 54.7697 41.5912L55.3359 41L56.1109 41.7003C56.5373 42.0855 57.3797 42.6319 57.9831 42.915C58.9181 43.3533 59.3401 43.4286 60.8373 43.4241C62.3675 43.4197 62.733 43.3486 63.6681 42.8742C64.2586 42.5745 65.0565 42.0244 65.4411 41.6517L66.1404 40.9739L66.9053 41.6886C67.326 42.0818 68.1534 42.6343 68.7439 42.9164C69.6572 43.3527 70.0802 43.4294 71.5747 43.4294C73.0906 43.4294 73.4791 43.3568 74.4054 42.9006C74.996 42.6097 75.8093 42.05 76.2126 41.6568L76.9461 40.9419L77.8291 41.7559C79.2099 43.0286 80.239 43.4105 82.312 43.4197C84.2621 43.4282 85.2886 43.0868 86.7202 41.9529L87.4855 41.3468V55.5009C87.4855 63.2857 87.5425 69.8039 87.6124 69.9856C87.8033 70.4833 88.8349 70.8554 89.4133 70.6354C90.4361 70.2465 90.401 70.7523 90.4076 56.3562L90.4139 42.9277L90.8531 43.1725C91.1118 43.3168 92.0149 43.42 93.0494 43.4236C94.5474 43.4286 94.9681 43.3537 95.9036 42.915C97.4461 42.1917 98.5052 41.1588 99.2458 39.6555L99.8823 38.3637L99.941 34.1613L100 29.9589L95.969 24.0045C93.7518 20.7297 91.5405 17.6412 91.0548 17.141C89.9961 16.0513 88.6883 15.3057 87.3209 15.0125L86.3142 14.7966L86.3099 9.10246C86.306 3.99323 86.2687 3.32693 85.946 2.6165C85.5032 1.64175 84.2286 0.521155 83.2183 0.218556C82.6568 0.0502725 74.0642 -0.0059522 49.8821 0.000490216C22.6777 0.00771353 17.1774 0.0535913 16.5457 0.278686ZM82.9065 3.39955C83.336 3.82885 83.3858 4.04203 83.3858 5.44941V7.01999H78.7146H74.0433L73.6388 7.53441C73.1121 8.20403 73.1281 8.63177 73.705 9.30295L74.1759 9.85075L78.7808 9.90951L83.3858 9.96847V12.3986V14.829H50.0023H16.6189V12.3887V9.94837H41.969C59.974 9.94837 67.4984 9.88589 67.938 9.73264C68.9768 9.3705 69.2761 8.23624 68.5411 7.44734L68.143 7.01999H42.381H16.6189V5.37483C16.6189 3.82982 16.6503 3.70488 17.1333 3.32497L17.6477 2.92027H50.0375H82.4274L82.9065 3.39955ZM16.8379 18.4894C15.4936 21.1168 11.4937 28.6189 11.3707 28.7434C11.2887 28.8264 9.66675 28.8703 7.76663 28.841L4.31193 28.7876L7.34026 24.2974C10.4236 19.726 11.5815 18.3782 12.7452 18.0059C13.1041 17.8911 14.2561 17.7882 15.305 17.7773L17.2126 17.7574L16.8379 18.4894ZM26.077 18.1806C26.003 18.4133 25.0831 20.8952 24.0328 23.6957L22.1229 28.7876L18.3857 28.8407L14.6485 28.8938L15.6151 27.0836C16.1467 26.088 17.2993 23.9118 18.1766 22.2475C20.5337 17.7759 20.555 17.7591 23.9041 17.7581C26.182 17.7574 26.2095 17.7626 26.077 18.1806ZM35.0665 18.2942C34.9888 18.5896 34.4207 21.0514 33.8041 23.7652C33.1876 26.4788 32.6394 28.743 32.5858 28.7965C32.5323 28.8502 30.8588 28.8701 28.8673 28.8409L25.2463 28.7876L26.5986 25.1759C27.3424 23.1895 28.178 20.9669 28.4554 20.2367C28.7326 19.5066 29.1777 18.6501 29.4442 18.3333L29.9289 17.7574H32.5682H35.2076L35.0665 18.2942ZM44.081 18.3918C44.0214 18.7407 43.819 21.2445 43.631 23.9557L43.2893 28.8852H39.5201C36.5254 28.8852 35.7509 28.8321 35.7509 28.6271C35.7509 28.1917 37.8886 18.866 38.1194 18.2942L38.3363 17.7574H41.2627H44.1891L44.081 18.3918ZM53.0153 18.7823C53.1962 20.4319 53.7116 27.3722 53.7116 28.1619V28.8852H50.0023H46.2931L46.2944 28.1531C46.296 27.3113 46.8126 20.3123 46.9859 18.7823L47.1021 17.7574H50.0023H52.9026L53.0153 18.7823ZM61.9005 18.3918C62.1518 19.1075 64.2538 28.2614 64.2538 28.6404C64.2538 28.8282 63.3766 28.8852 60.4845 28.8852H56.7153L56.3737 23.9557C56.1857 21.2445 55.9832 18.7407 55.9237 18.3918L55.8156 17.7574H58.7467H61.6776L61.9005 18.3918ZM70.5605 18.3333C70.827 18.6501 71.2721 19.5066 71.5493 20.2367C71.8267 20.9669 72.6623 23.1895 73.4061 25.1759L74.7584 28.7876L71.1374 28.8409C69.1459 28.8701 67.4724 28.8502 67.4189 28.7965C67.3652 28.743 66.8171 26.4788 66.2005 23.7652C65.584 21.0514 65.0159 18.5896 64.9382 18.2942L64.7971 17.7574H67.4365H70.0757L70.5605 18.3333ZM78.8566 18.0316C79.7704 18.5072 80.1566 19.1032 82.7597 24.0575L85.3009 28.8936L81.5913 28.8405L77.8818 28.7876L75.9719 23.6957C74.9216 20.8952 74.0017 18.4133 73.9277 18.1806C73.7952 17.763 73.8237 17.7574 76.0613 17.7574C77.6288 17.7574 78.4921 17.8421 78.8566 18.0316ZM87.1228 17.984C88.4294 18.3754 89.2939 19.3654 92.5438 24.1918L95.7043 28.8852L92.1319 28.8801L88.5592 28.8752L85.7285 23.4661C84.1716 20.4913 82.8684 17.9899 82.8327 17.9073C82.7294 17.6697 86.2858 17.7331 87.1228 17.984ZM10.7579 34.6931C10.7543 37.0743 10.6913 37.7078 10.3932 38.3536C9.12813 41.0945 5.40812 41.3729 3.63645 38.8592C3.05371 38.0324 3.05039 38.0123 2.98479 34.9209L2.91881 31.8135H6.84048H10.7622L10.7579 34.6931ZM21.4638 35.0174L21.4019 38.221L20.8049 38.9707C18.9883 41.2515 15.6744 41.0611 14.2618 38.5949C13.8278 37.8372 13.7827 37.5184 13.7218 34.7907L13.6556 31.8135H17.5907H21.5259L21.4638 35.0174ZM32.3966 34.7907C32.313 38.0076 32.1908 38.46 31.1317 39.4658C29.4723 41.042 26.9955 40.9173 25.4706 39.1805C24.6741 38.2733 24.4279 37.085 24.4279 34.1467V31.8135H28.4509H32.4739L32.3966 34.7907ZM43.1695 34.606C43.1695 37.2281 43.1382 37.461 42.6574 38.426C41.219 41.3124 37.2132 41.3173 35.7423 38.4344C35.4134 37.7896 35.3605 37.2787 35.3605 34.7497V31.8135H39.265H43.1695V34.606ZM53.9068 34.7113C53.9068 37.3679 53.869 37.6804 53.4526 38.4693C53.2029 38.9426 52.6242 39.5933 52.1668 39.9154C51.4394 40.4278 51.1684 40.501 50.0023 40.501C48.8363 40.501 48.5653 40.4278 47.8379 39.9154C47.3805 39.5933 46.8018 38.9426 46.5521 38.4693C46.1357 37.6804 46.0978 37.3679 46.0978 34.7113V31.8135H50.0023H53.9068V34.7113ZM64.6442 34.7497C64.6442 37.2787 64.5913 37.7896 64.2623 38.4344C62.7915 41.3173 58.7857 41.3124 57.3473 38.426C56.8664 37.461 56.8352 37.2281 56.8352 34.606V31.8135H60.7397H64.6442V34.7497ZM75.5768 34.1467C75.5768 37.085 75.3306 38.2733 74.5341 39.1805C73.0092 40.9173 70.5324 41.042 68.873 39.4658C67.8139 38.46 67.6917 38.0076 67.6081 34.7907L67.5308 31.8135H71.5538H75.5768V34.1467ZM86.2829 34.7907C86.2224 37.5032 86.1752 37.8401 85.7511 38.5802C84.3258 41.068 81.0269 41.2646 79.1998 38.9707L78.6028 38.221L78.5409 35.0174L78.4788 31.8135H82.414H86.3491L86.2829 34.7907ZM97.0199 34.9209C96.9543 38.0123 96.951 38.0324 96.3682 38.8592C94.5966 41.3729 90.8766 41.0945 89.6115 38.3536C89.3134 37.7078 89.2503 37.0743 89.2468 34.6931L89.2425 31.8135H93.1642H97.0859L97.0199 34.9209ZM19.4497 53.8507C19.0202 54.0479 18.5067 54.3915 18.3086 54.6144C17.4117 55.623 17.4174 55.4992 17.4084 73.9333L17.3998 91.3571H16.7196C16.2441 91.3571 15.8476 91.5285 15.4019 91.9264L14.7643 92.4955L14.6987 94.7571L14.6331 97.0186H13.5761H12.5192V92.6524C12.5192 88.5308 12.4965 88.2573 12.1145 87.7718C11.5856 87.0994 10.6153 87.0705 10.0152 87.7091C9.60526 88.1457 9.59081 88.3114 9.59081 92.5898V97.0186H5.28708H0.983152L0.50407 97.4979C0.240517 97.7614 0.0247935 98.2046 0.0247935 98.4828C0.0247935 98.761 0.240517 99.2042 0.50407 99.4677L0.983152 99.947H50.0023H99.0215L99.5006 99.4677C100.111 98.8571 100.111 98.1086 99.5006 97.4979C99.0826 97.0797 98.846 97.0186 97.646 97.0186H96.2706V81.7304C96.2706 66.6145 96.2661 66.437 95.8726 66.0148C95.3318 65.4342 94.431 65.457 93.8215 66.0667L93.3422 66.5458V76.2184V85.8908H89.0375C84.3744 85.8908 84.0171 85.958 83.2077 86.987C82.8196 87.4803 82.8001 87.7339 82.8001 92.262V97.0186H81.1592H79.5184L79.6213 96.2526C79.8181 94.7852 78.2492 93.938 77.2274 94.96C76.9639 95.2235 76.7481 95.6491 76.7481 95.9058C76.7481 96.4318 76.1996 97.0186 75.7078 97.0186C75.5284 97.0186 75.2059 96.8429 74.9911 96.6282C74.6157 96.2528 74.6007 95.9775 74.6007 89.5025V82.7672H80.3215H86.0422L87.0746 82.2528C88.3062 81.639 89.1117 80.6123 89.442 79.235C89.7778 77.8358 89.6101 76.2153 89.074 75.6788C88.666 75.2702 88.4485 75.2468 84.2188 75.1534L79.7907 75.0558L79.5629 74.2681C78.9345 72.0949 77.4578 70.2273 75.7474 69.4427C75.224 69.2026 74.7959 68.9398 74.7959 68.8586C74.7959 68.4617 73.9609 67.9301 73.3376 67.9301C72.8122 67.9301 72.5635 68.0607 72.23 68.5119C71.9934 68.8317 71.5071 69.1901 71.1491 69.3082C70.2481 69.6055 68.538 71.2191 67.9207 72.3541C67.6382 72.8736 67.302 73.716 67.1737 74.2261L66.9406 75.1534H62.3671H57.7936L57.3145 75.6327C56.8817 76.0653 56.8356 76.2691 56.8395 77.7314C56.8426 78.8805 56.9482 79.5807 57.2034 80.1426C57.6407 81.1053 58.9995 82.3088 59.9461 82.5716C60.3295 82.6782 63.1183 82.7654 66.1572 82.766L71.6723 82.7672V89.5698C71.6723 96.1583 71.6598 96.3838 71.276 96.7311C70.662 97.2869 69.8872 96.9288 69.6166 95.9644C69.3905 95.1591 68.726 94.4807 68.1629 94.4807C67.9745 94.4807 67.589 94.6628 67.3061 94.8854C66.8887 95.2136 66.7917 95.4531 66.7917 96.1544V97.0186H65.4378H64.0841L64.0224 92.382C63.9334 85.6665 64.1542 85.8908 57.6354 85.8908H53.3212V76.2535C53.3212 66.7994 53.3136 66.6065 52.9165 66.1018C52.3569 65.3904 51.357 65.3904 50.7975 66.1018C50.3959 66.6122 50.3928 66.7344 50.3928 81.8174V97.0186H47.5792H44.7658L44.6996 94.8557L44.6337 92.6928L43.9045 92.025C43.3635 91.5297 42.9979 91.3571 42.4891 91.3571H41.8029V80.8062V70.2551L41.3236 69.776C41.0601 69.5124 40.6169 69.2967 40.3387 69.2967C40.0605 69.2967 39.6174 69.5124 39.3538 69.776L38.8745 70.2551V80.8079V91.361L29.6502 91.3102L20.4258 91.2595L20.3721 74.2749C20.3426 64.9334 20.3664 57.0918 20.4252 56.8492L20.5318 56.408L29.6545 56.4587L38.7769 56.5095L38.8745 60.578C38.9702 64.5629 38.9817 64.6543 39.4331 65.0193C40.0599 65.5265 40.7491 65.4877 41.3236 64.9129C41.8021 64.4346 41.8029 64.4264 41.8029 60.338C41.8029 57.9249 41.7178 56.0163 41.5958 55.6925C41.2875 54.8751 40.2538 53.896 39.4688 53.6779C39.0586 53.5639 35.0015 53.487 29.5037 53.489C20.9228 53.4919 20.1722 53.5188 19.4497 53.8507ZM74.5616 72.1101C75.3127 72.5025 76.0924 73.3759 76.445 74.2199C76.6117 74.6191 76.7481 74.9924 76.7481 75.0496C76.7481 75.1068 75.2437 75.1534 73.4049 75.1534H70.0617L70.1853 74.5354C70.5765 72.5794 72.9463 71.2661 74.5616 72.1101ZM33.8875 73.29C33.624 73.5536 33.4082 73.9967 33.4082 74.2749C33.4082 74.9258 34.2215 75.7391 34.8724 75.7391C35.5233 75.7391 36.3366 74.9258 36.3366 74.2749C36.3366 73.6241 35.5233 72.8107 34.8724 72.8107C34.5942 72.8107 34.1511 73.0265 33.8875 73.29ZM86.7046 78.2899C86.7046 78.6109 86.2851 79.3242 85.9407 79.5886C85.7049 79.7697 82.659 79.8279 73.1765 79.8326L60.7219 79.8388L60.2429 79.3596C59.9793 79.096 59.7636 78.7007 59.7636 78.481C59.7636 78.0828 59.794 78.0818 73.2341 78.0818C82.6383 78.0818 86.7046 78.1447 86.7046 78.2899ZM61.1302 92.9189V97.0186H57.2257H53.3212V92.9189V88.8192H57.2257H61.1302V92.9189ZM93.3422 92.9189V97.0186H89.5354H85.7285V92.9189V88.8192H89.5354H93.3422V92.9189ZM41.8029 95.652V97.0186H29.699H17.595V95.652V94.2855H29.699H41.8029V95.652Z" fill="#FEA02F"/>
</svg>
