<svg width="100" height="100" viewBox="0 0 100 100" fill="none" xmlns="http://www.w3.org/2000/svg">
<path fill-rule="evenodd" clip-rule="evenodd" d="M32.1774 6.35769C31.5809 7.01675 31.7675 7.8921 32.7402 8.99979C34.673 11.2003 35.1488 13.4513 34.1346 15.5953C33.8563 16.1835 32.9157 17.4555 32.0444 18.4218C28.6906 22.1413 28.0015 25.3646 29.7856 28.9843C30.1582 29.7402 30.934 30.8768 31.5097 31.5104C32.3694 32.4564 32.6681 32.6621 33.1805 32.6621C34.0319 32.6621 34.5917 32.1134 34.5917 31.2781C34.5917 30.7603 34.3887 30.3758 33.7048 29.5972C32.381 28.0906 31.8048 26.7867 31.8048 25.2979C31.8048 23.6248 32.4743 22.3118 34.4377 20.1346C37.751 16.4601 38.4373 13.2127 36.6604 9.61798C36.2882 8.86505 35.5315 7.74308 34.9787 7.12451C34.0922 6.13259 33.8868 6 33.2374 6C32.7723 6 32.3818 6.13181 32.1774 6.35769ZM49.7784 6.35769C49.1819 7.01675 49.3684 7.8921 50.3412 8.99979C52.274 11.2003 52.7498 13.4513 51.7356 15.5953C51.4573 16.1835 50.5166 17.4555 49.6454 18.4218C46.2916 22.1413 45.6024 25.3646 47.3866 28.9843C47.7591 29.7402 48.5349 30.8768 49.1107 31.5104C49.9704 32.4564 50.269 32.6621 50.7814 32.6621C51.6329 32.6621 52.1926 32.1134 52.1926 31.2781C52.1926 30.7603 51.9896 30.3758 51.3057 29.5972C49.9819 28.0906 49.4058 26.7867 49.4058 25.2979C49.4058 23.6248 50.0752 22.3118 52.0387 20.1346C55.352 16.4601 56.0382 13.2127 54.2613 9.61798C53.8892 8.86505 53.1325 7.74308 52.5796 7.12451C51.6931 6.13259 51.4878 6 50.8383 6C50.3733 6 49.9827 6.13181 49.7784 6.35769ZM67.3793 6.35769C66.7828 7.01675 66.9694 7.8921 67.9422 8.99979C69.8749 11.2003 70.3507 13.4513 69.3365 15.5953C69.0583 16.1835 68.1176 17.4555 67.2463 18.4218C63.8926 22.1413 63.2034 25.3646 64.9875 28.9843C65.3601 29.7402 66.1359 30.8768 66.7116 31.5104C67.5714 32.4564 67.87 32.6621 68.3824 32.6621C69.2339 32.6621 69.7936 32.1134 69.7936 31.2781C69.7936 30.7603 69.5906 30.3758 68.9067 29.5972C67.5829 28.0906 67.0068 26.7867 67.0068 25.2979C67.0068 23.6248 67.6762 22.3118 69.6397 20.1346C72.953 16.4601 73.6392 13.2127 71.8623 9.61798C71.4901 8.86505 70.7335 7.74308 70.1806 7.12451C69.2941 6.13259 69.0888 6 68.4393 6C67.9742 6 67.5837 6.13181 67.3793 6.35769ZM41.3011 32.6033C40.4581 32.9344 40.2085 33.622 40.3648 35.1847C40.6386 37.9235 41.4026 39.9272 42.7356 41.4026C43.2161 41.9345 43.3513 42.2001 43.1686 42.2533C43.0227 42.2959 41.9792 42.568 40.8498 42.8578C35.7081 44.1777 30.8839 46.793 26.3548 50.716C24.1248 52.6474 22.3523 54.581 20.2166 57.4122C18.8333 59.2458 18.5054 59.5613 17.3994 60.123C16.1601 60.7523 16.12 60.7585 13.344 60.7585H10.5403L9.66811 60.0928C6.59616 57.7478 3.59754 57.6434 1.64637 59.8136C0.598334 60.9793 0.187841 62.1498 0.0323655 64.4172C-0.234582 68.3092 1.16117 71.0522 3.79799 71.8188C5.50314 72.3146 7.1277 71.8831 9.40175 70.3309C10.4674 69.6034 10.616 69.559 11.9801 69.559H13.4277L12.7847 71.2702C12.4311 72.2115 11.8577 74.1255 11.5105 75.5238C11.1634 76.9221 10.8597 78.0894 10.8356 78.118C10.8116 78.1465 10.2724 78.304 9.6376 78.4678C5.99107 79.4091 3.06364 82.0663 2.27395 85.1515C2.09226 85.862 1.79324 86.3627 1.21652 86.9224C0.249444 87.8609 -0.11118 88.8362 0.0394059 90.107C0.257658 91.9494 1.37004 93.5045 3.0656 94.3371L4.18111 94.8849L18.653 94.9441C26.6126 94.9768 33.4159 94.95 33.7715 94.8845C35.0029 94.6574 35.5791 93.4545 34.9008 92.5265C34.6316 92.1581 34.1872 92.144 19.6956 92.0491C5.31872 91.9549 4.74453 91.9373 4.13534 91.5688C3.46338 91.1622 2.84167 90.1037 2.94865 89.5479C3.00927 89.2334 5.82269 89.2134 50.0414 89.2134C94.2601 89.2134 97.0735 89.2334 97.1341 89.5479C97.2425 90.1109 96.5678 91.2653 95.9242 91.6177C95.3592 91.9271 93.2682 91.9551 67.1167 92.0028L38.9184 92.0542L38.5151 92.567C37.9894 93.2353 38.0062 93.6645 38.5839 94.3361L39.0558 94.8849H67.4789H95.9017L97.0172 94.3371C98.9337 93.396 99.9851 91.7574 99.9996 89.6889C100.007 88.6164 99.9225 88.2741 99.4882 87.617C98.7215 86.4575 97.9778 86.1822 95.6115 86.1822C94.5161 86.1822 93.6536 86.1161 93.6947 86.0355C94.9927 83.4824 94.925 83.8117 94.9094 80.1196C94.9016 78.2373 94.7881 75.8612 94.6575 74.8393C92.4044 57.2157 82.4381 46.4994 64.9259 42.8701C62.6574 42.4 62.3304 42.4056 61.7265 42.9243C61.271 43.3156 61.271 44.5619 61.7265 44.9621C61.9146 45.1273 63.2128 45.5026 64.6111 45.796C75.9461 48.1744 84.2594 54.1836 88.3802 62.9772C89.8589 66.1325 91.1911 70.7799 91.6123 74.2526L91.7428 75.3282L87.261 70.8791C84.0505 67.692 82.6528 66.43 82.3339 66.43C82.089 66.43 81.6224 66.6961 81.297 67.0216C80.8196 67.4989 80.7306 67.716 80.8362 68.1461C80.9199 68.4869 82.8887 70.6178 86.2974 74.0571C91.9743 79.785 92.0881 79.9373 92.0881 81.8185C92.0881 82.9279 91.1873 84.5926 90.2302 85.2517C89.8 85.5479 88.9612 85.8794 88.3663 85.9883C87.7098 86.1084 83.7535 86.1661 78.3035 86.1352L69.3223 86.0844L69.0846 84.911C68.5023 82.0348 67.3512 80.1624 65.3296 78.8036C63.8912 77.8368 62.7102 77.4421 60.369 77.1456C58.8647 76.9551 58.6109 76.9688 58.1601 77.2641C57.3249 77.8113 57.1962 78.3302 57.4356 80.1843C57.6876 82.1378 58.2131 83.7243 59.0294 84.9962C59.3566 85.5059 59.6241 85.9813 59.6241 86.0527C59.6241 86.1239 58.3248 86.1822 56.7368 86.1822H53.8494L51.2805 83.5909C49.8675 82.1656 48.5707 80.718 48.3986 80.3738C48.2265 80.0294 48.0857 79.3477 48.0857 78.8588C48.0857 78.1113 48.1988 77.8444 48.7943 77.1851C49.6561 76.2312 51.3845 75.3785 53.5809 74.8235C55.6669 74.2966 61.2999 74.096 64.5589 74.4325C67.676 74.7544 71.2498 75.5089 74.096 76.4461L76.5406 77.2508L78.4963 79.1615C79.5719 80.2123 80.6757 81.1567 80.9493 81.2601C81.5453 81.4854 82.5754 81.1199 82.7694 80.6142C83.1347 79.6626 82.9219 79.3301 80.0962 76.4361C77.0065 73.2717 76.4 72.4763 75.2634 70.0986C74.3327 68.1521 73.7448 65.9407 73.5768 63.7562C73.3984 61.4356 73.6406 61.4155 75.8417 63.5692C77.2646 64.9617 77.6727 65.2566 78.1777 65.2566C78.9692 65.2566 79.5719 64.6532 79.5719 63.8612C79.5719 63.3519 79.2695 62.9401 77.7852 61.4264C75.8229 59.4254 75.1376 58.9985 73.8882 58.9985C71.9456 58.9985 70.5751 60.582 70.5766 62.8249C70.5784 65.5163 71.6274 69.6742 72.8953 72.0148C73.2123 72.6003 73.4288 73.0792 73.3764 73.0792C73.3239 73.0792 72.6013 72.9056 71.7704 72.6936C67.8197 71.6848 65.4577 71.4261 60.2108 71.4277C56.399 71.4288 54.9108 71.5008 53.895 71.7337C52.6823 72.0118 52.5775 72.0112 52.6974 71.7277C53.6079 69.5733 53.8301 68.4308 53.8424 65.8433C53.853 63.5997 53.7861 62.9829 53.3969 61.7364C51.7778 56.5507 47.9299 52.8741 42.5121 51.3352C41.184 50.9581 40.4747 50.8903 37.8185 50.8868C34.2494 50.8819 32.714 51.1924 29.6534 52.5379C28.7122 52.9517 27.9905 53.212 28.0496 53.1162C28.1088 53.0204 28.8987 52.3631 29.805 51.6553C34.1757 48.2425 39.2244 45.9636 44.5143 45.0159C45.4567 44.8469 47.7988 44.6239 49.7189 44.5201C51.639 44.4164 53.7448 44.1929 54.3984 44.0236C58.5736 42.9417 60.8255 40.0277 61.2863 35.1114C61.4161 33.725 61.3962 33.6106 60.9313 33.0709C60.4604 32.5243 60.3759 32.5016 59.0048 32.5512C57.2902 32.6136 55.5916 33.0153 54.2116 33.6849C53.1939 34.1787 51.4528 35.6823 51.0552 36.4105C50.8471 36.7921 50.8336 36.7898 50.5063 36.3128C49.854 35.3625 48.5113 34.2073 47.4738 33.7035C45.6736 32.8297 42.2698 32.2231 41.3011 32.6033ZM46.0589 36.3227C47.7065 37.1181 48.7962 38.6476 49.1731 40.6935L49.3137 41.4562L48.4788 41.3228C47.2849 41.1317 45.6159 40.2605 44.915 39.4624C44.1883 38.6345 43.6528 37.4729 43.4694 36.3261L43.3335 35.4759L44.0962 35.6095C44.5157 35.683 45.3988 36.004 46.0589 36.3227ZM58.1736 36.3534C57.7577 38.9541 55.7953 40.9027 53.1689 41.3226L52.3336 41.4562L52.4645 40.6935C52.5364 40.274 52.8794 39.3587 53.2268 38.6596C53.93 37.2437 55.0311 36.3398 56.6652 35.8366C58.2073 35.3617 58.3256 35.4022 58.1736 36.3534ZM42.121 54.3045C44.8247 55.1657 46.9982 56.5926 48.4258 58.4438C52.1529 63.2759 51.8279 69.4366 47.6037 74.024C46.8245 74.8702 46.0362 75.8177 45.852 76.1299L45.5168 76.6972L42.1566 76.7103C39.0748 76.7222 38.6518 76.7674 37.0517 77.2569C33.8 78.2514 31.6249 79.545 29.2676 81.8865L27.7568 83.3867L27.1779 82.1496C25.7753 79.1525 23.1062 77.5035 18.9917 77.0922C17.8293 76.9761 17.4804 77.0091 17.0762 77.2739C16.3721 77.7353 16.2511 78.2439 16.4144 80.0568C16.5943 82.0553 17.1972 83.8979 18.0751 85.1328C18.4471 85.6561 18.6688 86.1118 18.5679 86.1454C18.0915 86.3042 16.0314 85.7359 15.3284 85.2517C14.2719 84.5241 13.4705 82.9391 13.4705 81.577C13.4705 80.2287 13.95 77.499 14.5676 75.3319C15.3579 72.558 16.4517 69.7546 16.7437 69.7546C17.3812 69.7546 18.6423 70.67 21.1541 72.9566C23.8768 75.435 26.3343 77.2338 28.0103 77.9752C28.8029 78.3259 28.9934 78.3456 29.4526 78.125C29.7436 77.985 30.1077 77.6455 30.262 77.3705C30.7175 76.558 30.2458 75.8649 28.6402 74.9872C26.8594 74.0136 25.6842 73.1115 22.8741 70.5597C18.707 66.7757 18.3329 66.6255 13.078 66.6255H9.43206L8.33904 67.4743C7.73787 67.9411 6.78664 68.5206 6.22536 68.7621C5.30014 69.1601 5.1384 69.1763 4.49734 68.9363C3.37029 68.5143 3.00771 67.5711 3.00771 65.061C3.00771 63.3432 3.07322 62.8961 3.40862 62.325C4.33169 60.7537 5.412 60.8053 7.98468 62.5435L9.73089 63.7235L13.3119 63.6514C17.5475 63.5659 18.01 63.4321 20.9071 61.4536C29.3732 55.6719 31.2172 54.6717 34.8007 53.919C36.3613 53.591 40.5785 53.8132 42.121 54.3045ZM44.4189 79.6585C44.8223 79.7251 45.1522 79.8529 45.1522 79.9422C45.1522 80.0318 45.341 80.6093 45.5717 81.2259C45.8983 82.0989 46.3739 82.7425 47.723 84.1369C48.6754 85.1216 49.4547 85.9846 49.4547 86.0546C49.4547 86.1249 44.9633 86.1822 39.474 86.1822H29.4932L29.7275 85.7441C30.1374 84.9784 32.9172 82.3932 34.063 81.7125C35.5581 80.824 37.3024 80.1399 38.866 79.8284C40.2596 79.5509 43.2198 79.4602 44.4189 79.6585ZM21.7836 80.6869C23.5072 81.4493 24.8104 83.2094 25.1296 85.2059L25.2631 86.0412L24.5004 85.9027C23.3333 85.6907 21.8529 84.9517 21.1126 84.2114C20.3724 83.4712 19.6334 81.9908 19.4214 80.8236L19.2829 80.0609L20.1331 80.1969C20.6007 80.2716 21.3434 80.4922 21.7836 80.6869ZM62.5768 80.5899C63.9401 81.1628 64.8485 82.0107 65.4645 83.2856C65.7923 83.9644 66.1206 84.8619 66.1938 85.28L66.327 86.0402L65.5668 85.907C64.1448 85.658 62.3754 84.6476 61.7071 83.7032C61.0461 82.7689 60.4461 81.2905 60.4217 80.5346C60.4076 80.103 60.4606 80.0783 61.1589 80.19C61.5728 80.2561 62.2109 80.436 62.5768 80.5899ZM10.5881 82.4549C10.6766 83.4327 10.9952 84.3266 11.8639 86.0355C11.905 86.1163 10.3911 86.1822 8.4998 86.1822C6.25 86.1822 5.06116 86.1119 5.06116 85.9788C5.06116 85.6003 5.84225 84.2414 6.47197 83.5242C7.36747 82.5043 9.31277 81.3671 10.2654 81.3067C10.3911 81.2989 10.527 81.7831 10.5881 82.4549Z" fill="#FEA02F"/>
</svg>
